# xmcd
#
# Track frame offsets:
#	150
#	18094
#	39414
#	55994
#	80865
#	99085
#	128791
#	147148
#	175912
#	202906
#	221865
#	244565
#	261605
#
# Disc length: 3754 seconds
#
# Revision: 1
# Processed by: cddbd v1.5.2PL0 Copyright (c) Steve Scherf et al.
# Submitted via: audiograbber 1.83.01
#
DISCID=b40ea80d
DTITLE=Tin Pan Alley - Live Im Cotton Club
DYEAR=1998
DGENRE=Blues
TTITLE0=Don't Go To The Dogs
TTITLE1=Stop Messin' 'Round
TTITLE2=Dust My Broom
TTITLE3=Ctrossroads
TTITLE4=Undercover Agent
TTITLE5=Inner City Blues
TTITLE6=It Don't Come Easy
TTITLE7=Gotta Get Out Of This Place
TTITLE8=I'd Rather Go Blind
TTITLE9=Baby What You Want Me To Do
TTITLE10=Big Boss Man
TTITLE11=Born To Boogie
TTITLE12=Thanks For Moving On
EXTD=
EXTT0=
EXTT1=
EXTT2=
EXTT3=
EXTT4=
EXTT5=
EXTT6=
EXTT7=
EXTT8=
EXTT9=
EXTT10=
EXTT11=
EXTT12=
PLAYORDER=
